<svg xmlns="http://www.w3.org/2000/svg" viewBox="0 0 64 64" role="img" aria-label="ThermTech">
  <defs>
    <linearGradient id="fR" x1="0" y1="0" x2="1" y2="1"><stop offset="0" stop-color="#E8242B"/><stop offset="1" stop-color="#A60000"/></linearGradient>
    <linearGradient id="fB" x1="0" y1="1" x2="1" y2="0"><stop offset="0" stop-color="#2B6CB0"/><stop offset="1" stop-color="#0B2F4F"/></linearGradient>
  </defs>
  <rect width="64" height="64" rx="14" fill="#021D38"/>
  <g transform="translate(32,32)">
    <path d="M0,-22 A22,22 0 0,1 0,22 A11,11 0 0,1 0,0 A11,11 0 0,0 0,-22 Z" fill="url(#fR)"/>
    <path d="M0,22 A22,22 0 0,1 0,-22 A11,11 0 0,1 0,0 A11,11 0 0,0 0,22 Z" fill="url(#fB)"/>
    <circle cx="0" cy="-11" r="4.2" fill="#fff"/>
    <circle cx="0" cy="11" r="4.2" fill="#fff"/>
  </g>
</svg>
